<svg xmlns="http://www.w3.org/2000/svg" viewBox="0 0 512 512">
  <defs>
    <linearGradient id="grad" x1="0%" y1="0%" x2="100%" y2="100%">
      <stop offset="0%" style="stop-color:#4ade80;stop-opacity:1" />
      <stop offset="100%" style="stop-color:#166534;stop-opacity:1" />
    </linearGradient>
    <filter id="glow">
      <feGaussianBlur stdDeviation="2.5" result="coloredBlur"/>
      <feMerge>
        <feMergeNode in="coloredBlur"/>
        <feMergeNode in="SourceGraphic"/>
      </feMerge>
    </filter>
  </defs>
  
  <rect width="512" height="512" rx="100" fill="url(#grad)" />
  
  <g transform="translate(106, 106) scale(0.6)">
    <!-- Stylized Leaf -->
    <path d="M256 0C114.6 0 0 114.6 0 256s114.6 256 256 256 256-114.6 256-256S397.4 0 256 0zm0 464c-114.7 0-208-93.3-208-208S141.3 48 256 48s208 93.3 208 208-93.3 208-208 208z" fill="none"/>
    
    <!-- Leaf Shape -->
    <path d="M256 64c0 0 160 32 160 192 0 88.4-71.6 160-160 160-88.4 0-160-71.6-160-160 0-160 160-192 160-192z" fill="#ffffff"/>
    
    <!-- Tech Circuit Lines inside Leaf -->
    <path d="M256 120v256M256 200l60-40M256 280l-60 40M256 340l80-50" stroke="#166534" stroke-width="24" stroke-linecap="round" fill="none" />
    <circle cx="256" cy="120" r="16" fill="#166534"/>
    <circle cx="316" cy="160" r="12" fill="#166534"/>
    <circle cx="196" cy="320" r="12" fill="#166534"/>
    <circle cx="336" cy="290" r="12" fill="#166534"/>
  </g>
</svg>
